<svg width="24" height="28" viewBox="0 0 24 28" fill="none" xmlns="http://www.w3.org/2000/svg">
<path d="M18.8182 10.1134H10.6364C10.4194 10.1134 10.2113 10.0256 10.0578 9.86931C9.90438 9.71303 9.81818 9.50107 9.81818 9.28006C9.81818 9.05904 9.90438 8.84708 10.0578 8.6908C10.2113 8.53452 10.4194 8.44672 10.6364 8.44672H18.8182C19.0352 8.44672 19.2433 8.53452 19.3967 8.6908C19.5501 8.84708 19.6364 9.05904 19.6364 9.28006C19.6364 9.50107 19.5501 9.71303 19.3967 9.86931C19.2433 10.0256 19.0352 10.1134 18.8182 10.1134Z" fill="#636567"/>
<path d="M10.6364 13.4467H18.8182C19.0352 13.4467 19.2433 13.3589 19.3967 13.2026C19.5501 13.0464 19.6364 12.8344 19.6364 12.6134C19.6364 12.3924 19.5501 12.1804 19.3967 12.0241C19.2433 11.8679 19.0352 11.7801 18.8182 11.7801H10.6364C10.4194 11.7801 10.2113 11.8679 10.0578 12.0241C9.90438 12.1804 9.81818 12.3924 9.81818 12.6134C9.81818 12.8344 9.90438 13.0464 10.0578 13.2026C10.2113 13.3589 10.4194 13.4467 10.6364 13.4467Z" fill="#636567"/>
<path d="M10.6364 16.7801H18.8182C19.0352 16.7801 19.2433 16.6923 19.3967 16.536C19.5501 16.3797 19.6364 16.1677 19.6364 15.9467C19.6364 15.7257 19.5501 15.5138 19.3967 15.3575C19.2433 15.2012 19.0352 15.1134 18.8182 15.1134H10.6364C10.4194 15.1134 10.2113 15.2012 10.0578 15.3575C9.90438 15.5138 9.81818 15.7257 9.81818 15.9467C9.81818 16.1677 9.90438 16.3797 10.0578 16.536C10.2113 16.6923 10.4194 16.7801 10.6364 16.7801Z" fill="#636567"/>
<path fill-rule="evenodd" clip-rule="evenodd" d="M21 21.7801H8.45454C7.65907 21.7795 6.89634 21.4574 6.33386 20.8845C5.77138 20.3116 5.45512 19.5347 5.45454 18.7245V3.7245C5.45512 2.9143 5.77138 2.13745 6.33386 1.56455C6.89634 0.991647 7.65907 0.669534 8.45454 0.668945H17.736C18.8127 0.668945 19.8676 1.11339 20.628 1.89006L22.8011 4.10339C23.1823 4.48941 23.4845 4.94861 23.6903 5.4544C23.8961 5.9602 24.0014 6.50255 24 7.05006V18.7245C23.9994 19.5347 23.6832 20.3116 23.1207 20.8845C22.5582 21.4574 21.7955 21.7795 21 21.7801ZM8.45454 2.33561C7.7029 2.33561 7.0909 2.95895 7.0909 3.7245V18.7245C7.0909 19.4901 7.7029 20.1134 8.45454 20.1134H21C21.7516 20.1134 22.3636 19.4901 22.3636 18.7245V7.05006C22.3636 6.38228 22.1083 5.7545 21.6447 5.28228L19.4716 3.06895C19.0108 2.60073 18.3869 2.33712 17.736 2.33561H8.45454Z" fill="#636567"/>
<path d="M16.0909 27.3356H3C2.20453 27.335 1.4418 27.0129 0.879317 26.44C0.316834 25.8671 0.000577926 25.0903 0 24.2801V6.50228C0.000577926 5.69208 0.316834 4.91523 0.879317 4.34233C1.4418 3.76942 2.20453 3.44731 3 3.44672H3.54545C3.76245 3.44672 3.97056 3.53452 4.12399 3.6908C4.27743 3.84708 4.36363 4.05904 4.36363 4.28006C4.36363 4.50107 4.27743 4.71303 4.12399 4.86931C3.97056 5.02559 3.76245 5.11339 3.54545 5.11339H3C2.24836 5.11339 1.63636 5.73672 1.63636 6.50228V24.2801C1.63636 25.0456 2.24836 25.6689 3 25.6689H16.0909C16.8425 25.6689 17.4545 25.0456 17.4545 24.2801V23.7245C17.4545 23.5035 17.5407 23.2915 17.6942 23.1352C17.8476 22.979 18.0557 22.8912 18.2727 22.8912C18.4897 22.8912 18.6978 22.979 18.8513 23.1352C19.0047 23.2915 19.0909 23.5035 19.0909 23.7245V24.2801C19.0903 25.0903 18.7741 25.8671 18.2116 26.44C17.6491 27.0129 16.8864 27.335 16.0909 27.3356Z" fill="#636567"/>
</svg>
